<svg width="19" height="19" viewBox="0 0 19 19" fill="none" xmlns="http://www.w3.org/2000/svg">
<path d="M18.9636 11.4945C18.9138 11.334 18.8136 11.1937 18.6779 11.0946C18.5422 10.9954 18.3782 10.9426 18.2101 10.9439L17.9976 10.9825C16.6139 11.3645 15.1538 11.3725 13.766 11.0058C12.3783 10.6392 11.1126 9.91092 10.0981 8.89538C9.08365 7.87983 8.3567 6.61334 7.99141 5.2251C7.62613 3.83686 7.63559 2.37655 8.01883 0.99316C8.03776 0.937127 8.04755 0.87841 8.04781 0.819264C8.05699 0.694587 8.0354 0.569563 7.98495 0.455182C7.9345 0.340801 7.85673 0.240565 7.75847 0.163286C7.66021 0.086007 7.54447 0.0340506 7.42143 0.0119838C7.29839 -0.010083 7.17182 -0.00158441 7.05283 0.0367325C5.42881 0.491975 3.95227 1.36453 2.77009 2.5676C1.58792 3.77067 0.7413 5.26233 0.314462 6.89419C-0.112375 8.52605 -0.104557 10.2412 0.337138 11.8691C0.778834 13.497 1.63901 14.9809 2.83211 16.1732C4.0252 17.3654 5.50963 18.2245 7.13774 18.6649C8.76584 19.1053 10.4809 19.1117 12.1122 18.6835C13.7436 18.2553 15.2344 17.4074 16.4364 16.2241C17.6384 15.0409 18.5097 13.5635 18.9636 11.9389C19.0121 11.7948 19.0121 11.6387 18.9636 11.4945Z" fill="#D9D9D9"/>
</svg>
